<?xml version="1.0"?>
<svg xmlns="http://www.w3.org/2000/svg" class="icon--sprite">
  <defs>
    <symbol viewBox="0 0 24 24" stroke-linecap="round" stroke-linejoin="round" id="icon--cake">
      <path d="M3 20h18v-8a3 3 0 0 0 -3 -3h-12a3 3 0 0 0 -3 3v8z"/>
      <path d="M3 14.803c.312 .135 .654 .204 1 .197a2.4 2.4 0 0 0 2 -1a2.4 2.4 0 0 1 2 -1a2.4 2.4 0 0 1 2 1a2.4 2.4 0 0 0 2 1a2.4 2.4 0 0 0 2 -1a2.4 2.4 0 0 1 2 -1a2.4 2.4 0 0 1 2 1a2.4 2.4 0 0 0 2 1c.35 .007 .692 -.062 1 -.197"/>
      <path d="M12 4l1.465 1.638a2 2 0 1 1 -3.015 .099l1.55 -1.737z"/>
    </symbol>
    <symbol viewBox="0 0 24 24" stroke-linecap="round" stroke-linejoin="round" id="icon--email">
      <path d="M3 7a2 2 0 0 1 2 -2h14a2 2 0 0 1 2 2v10a2 2 0 0 1 -2 2h-14a2 2 0 0 1 -2 -2v-10z"/>
      <path d="M3 7l9 6l9 -6"/>
    </symbol>
    <symbol viewBox="0 0 24 24" stroke-linecap="round" stroke-linejoin="round" id="icon--facebook">
      <path d="M7 10v4h3v7h4v-7h3l1 -4h-4v-2a1 1 0 0 1 1 -1h3v-4h-3a5 5 0 0 0 -5 5v2h-3"/>
    </symbol>
    <symbol viewBox="0 0 24 24" stroke-linecap="round" stroke-linejoin="round" id="icon--linkedin">
      <path d="M4 4m0 2a2 2 0 0 1 2 -2h12a2 2 0 0 1 2 2v12a2 2 0 0 1 -2 2h-12a2 2 0 0 1 -2 -2z"/>
      <path d="M8 11l0 5"/>
      <path d="M8 8l0 .01"/>
      <path d="M12 16l0 -5"/>
      <path d="M16 16v-3a2 2 0 0 0 -4 0"/>
    </symbol>
    <symbol viewBox="0 0 24 24" stroke-linecap="round" stroke-linejoin="round" id="icon--money">
      <path d="M12 12m-3 0a3 3 0 1 0 6 0a3 3 0 1 0 -6 0"/>
      <path d="M3 6m0 2a2 2 0 0 1 2 -2h14a2 2 0 0 1 2 2v8a2 2 0 0 1 -2 2h-14a2 2 0 0 1 -2 -2z"/>
      <path d="M18 12l.01 0"/>
      <path d="M6 12l.01 0"/>
    </symbol>
    <symbol viewBox="0 0 24 24" stroke-linecap="round" stroke-linejoin="round" id="icon--person">
      <path d="M8 7a4 4 0 1 0 8 0a4 4 0 0 0 -8 0"/>
      <path d="M6 21v-2a4 4 0 0 1 4 -4h4a4 4 0 0 1 4 4v2"/>
    </symbol>
    <symbol viewBox="0 0 24 24" stroke-linecap="round" stroke-linejoin="round" id="icon--phone">
      <path d="M5 4h4l2 5l-2.5 1.5a11 11 0 0 0 5 5l1.5 -2.5l5 2v4a2 2 0 0 1 -2 2a16 16 0 0 1 -15 -15a2 2 0 0 1 2 -2"/>
    </symbol>
    <symbol viewBox="0 0 24 24" stroke-linecap="round" stroke-linejoin="round" id="icon--skype">
      <path d="M12 3a9 9 0 0 1 8.603 11.65a4.5 4.5 0 0 1 -5.953 5.953a9 9 0 0 1 -11.253 -11.253a4.5 4.5 0 0 1 5.953 -5.954a8.987 8.987 0 0 1 2.65 -.396z"/>
      <path d="M8 14.5c.5 2 2.358 2.5 4 2.5c2.905 0 4 -1.187 4 -2.5c0 -1.503 -1.927 -2.5 -4 -2.5s-4 -1 -4 -2.5c0 -1.313 1.095 -2.5 4 -2.5c1.642 0 3.5 .5 4 2.5"/>
    </symbol>
    <symbol viewBox="0 0 24 24" stroke-linecap="round" stroke-linejoin="round" id="icon--telephone">
      <path d="M20 3h-2a2 2 0 0 0 -2 2v14a2 2 0 0 0 2 2h2a2 2 0 0 0 2 -2v-14a2 2 0 0 0 -2 -2z"/>
      <path d="M16 4h-11a3 3 0 0 0 -3 3v10a3 3 0 0 0 3 3h11"/>
      <path d="M12 8h-6v3h6z"/>
      <path d="M12 14v.01"/>
      <path d="M9 14v.01"/>
      <path d="M6 14v.01"/>
      <path d="M12 17v.01"/>
      <path d="M9 17v.01"/>
      <path d="M6 17v.01"/>
    </symbol>
    <symbol viewBox="0 0 24 24" stroke-linecap="round" stroke-linejoin="round" id="icon--twitter">
      <path d="M22 4.01c-1 .49 -1.98 .689 -3 .99c-1.121 -1.265 -2.783 -1.335 -4.38 -.737s-2.643 2.06 -2.62 3.737v1c-3.245 .083 -6.135 -1.395 -8 -4c0 0 -4.182 7.433 4 11c-1.872 1.247 -3.739 2.088 -6 2c3.308 1.803 6.913 2.423 10.034 1.517c3.58 -1.04 6.522 -3.723 7.651 -7.742a13.84 13.84 0 0 0 .497 -3.753c0 -.249 1.51 -2.772 1.818 -4.013z"/>
    </symbol>
    <symbol viewBox="0 0 24 24" stroke-linecap="round" stroke-linejoin="round" id="icon--user-suit">
      <path d="M12 22l4 -4l-2.5 -11l.993 -2.649a1 1 0 0 0 -.936 -1.351h-3.114a1 1 0 0 0 -.936 1.351l.993 2.649l-2.5 11l4 4z"/>
      <path d="M10.5 7h3l5 5.5"/>
    </symbol>
  </defs>
</svg>
