<?xml version="1.0" encoding="utf-8"?>
<!-- Generator: Adobe Illustrator 21.1.0, SVG Export Plug-In . SVG Version: 6.00 Build 0)  -->
<svg version="1.1" id="Capa_1" xmlns="http://www.w3.org/2000/svg" xmlns:xlink="http://www.w3.org/1999/xlink" x="0px" y="0px"
	 viewBox="0 0 24 24" style="enable-background:new 0 0 24 24;" xml:space="preserve">
<g>
	<path d="M18,23H4c-1.7,0-3-1.3-3-3V6c0-1.7,1.3-3,3-3h5.3c0.6,0,1,0.4,1,1s-0.4,1-1,1H4C3.4,5,3,5.4,3,6v14c0,0.6,0.4,1,1,1h14
		c0.6,0,1-0.4,1-1v-5.3c0-0.6,0.4-1,1-1s1,0.4,1,1V20C21,21.7,19.7,23,18,23z"/>
</g>
<g>
	<path d="M12,17H8c-0.6,0-1-0.4-1-1v-4c0-0.3,0.1-0.5,0.3-0.7l10-10c0.4-0.4,1-0.4,1.4,0l4,4c0.4,0.4,0.4,1,0,1.4l-10,10
		C12.5,16.9,12.3,17,12,17z M9,15h2.6l9-9L18,3.4l-9,9V15z"/>
</g>
</svg>
