<?xml version="1.0" encoding="utf-8"?>
<!-- Generator: Adobe Illustrator 21.1.0, SVG Export Plug-In . SVG Version: 6.00 Build 0)  -->
<svg version="1.1" id="Capa_1" xmlns="http://www.w3.org/2000/svg" xmlns:xlink="http://www.w3.org/1999/xlink" x="0px" y="0px"
	 viewBox="0 0 24 24" style="enable-background:new 0 0 24 24;" xml:space="preserve">
<g>
	<path d="M12,23.8c-0.5,0-0.9-0.1-1.3-0.3l-8-4c-1-0.5-1.7-1.6-1.7-2.7V7.2c0-1.1,0.6-2.2,1.7-2.7l8-4c0.8-0.4,1.8-0.4,2.7,0
		c0,0,0,0,0,0l8,4c1,0.5,1.7,1.5,1.7,2.7v9.5c0,1.1-0.6,2.2-1.7,2.7l-8,4C12.9,23.7,12.5,23.8,12,23.8z M12,2.2
		c-0.2,0-0.3,0-0.4,0.1l-8,4C3.2,6.5,3,6.9,3,7.2v9.5c0,0.4,0.2,0.7,0.5,0.9l8,4c0.3,0.1,0.6,0.1,0.9,0l8-4c0.3-0.2,0.6-0.5,0.6-0.9
		V7.2c0-0.4-0.2-0.7-0.6-0.9l-8-4C12.3,2.3,12.2,2.2,12,2.2z"/>
</g>
<g>
	<path d="M12,12c-0.2,0-0.3,0-0.4-0.1L1.9,7.1C1.4,6.8,1.2,6.2,1.4,5.7C1.7,5.2,2.3,5,2.8,5.3L12,9.9l9.2-4.6c0.5-0.2,1.1,0,1.3,0.4
		c0.2,0.5,0,1.1-0.4,1.3l-9.7,4.8C12.3,12,12.2,12,12,12z"/>
</g>
<g>
	<path d="M12,23.8c-0.6,0-1-0.4-1-1V11c0-0.6,0.4-1,1-1s1,0.4,1,1v11.8C13,23.3,12.6,23.8,12,23.8z"/>
</g>
<g>
	<path d="M17,9.5c-0.2,0-0.3,0-0.4-0.1l-10-5C6.1,4.1,5.9,3.5,6.1,3.1C6.4,2.6,7,2.4,7.4,2.6l10,5c0.5,0.2,0.7,0.8,0.4,1.3
		C17.7,9.3,17.4,9.5,17,9.5z"/>
</g>
</svg>
